<?xml version="1.0" encoding="utf-8"?><svg viewBox="0 0 24 24" xmlns="http://www.w3.org/2000/svg" xmlns:xlink="http://www.w3.org/1999/xlink"><style>:root>svg{display:none}:root>svg:target{display:block}</style><svg fill="none" viewBox="0 0 24 24" id="bag" xmlns="http://www.w3.org/2000/svg">
    <defs>
        <clipPath id="aa">
            <path fill="#fff" fill-opacity="0" d="M0 0h24v24H0z"/>
        </clipPath>
    </defs>
    <path fill="none" d="M0 0h24v24H0z"/>
    <g clip-path="url(#aa)">
        <path d="M18 6h-2c0-2.22-1.79-4-4-4S8 3.78 8 6H6a2 2 0 0 0-2 2v12c0 1.1.9 2 2 2h12c1.09 0 2-.9 2-2V8c0-1.11-.91-2-2-2Zm-6-2c1.09 0 2 .89 2 2h-4a2 2 0 0 1 2-2Zm6 16H6V8h2v2c0 .55.45 1 1 1 .54 0 1-.45 1-1V8h4v2c0 .55.45 1 1 1 .54 0 1-.45 1-1V8h2v12Z" fill="#202020"/>
    </g>
</svg><svg fill="none" viewBox="0 0 24 24" id="favorite" xmlns="http://www.w3.org/2000/svg">
    <defs>
        <clipPath id="ba">
            <path fill="#fff" fill-opacity="0" d="M0 0h24v24H0z"/>
        </clipPath>
    </defs>
    <path fill="none" d="M0 0h24v24H0z"/>
    <g clip-path="url(#ba)">
        <path d="m12 21.17-1.46-1.32C5.4 15.18 2 12.1 2 8.32c0-3.08 2.41-5.5 5.5-5.5 1.74 0 3.41.81 4.5 2.09a5.956 5.956 0 0 1 4.5-2.09c3.08 0 5.5 2.42 5.5 5.5 0 3.78-3.41 6.86-8.55 11.54L12 21.17Z" fill="#FFF"/>
        <path d="M10.58 3.7c-.92-.56-1.99-.88-3.08-.88-3.09 0-5.5 2.42-5.5 5.5 0 3.78 3.4 6.86 8.54 11.53L12 21.17l1.45-1.31C18.59 15.18 22 12.1 22 8.32c0-3.08-2.42-5.5-5.5-5.5-1.1 0-2.17.32-3.09.88-.53.33-1.01.74-1.41 1.21-.41-.47-.89-.88-1.42-1.21ZM12 18.47l-.11-.1-.01-.02c-.84-.75-1.45-1.31-1.84-1.66-.63-.58-1.17-1.09-1.62-1.53-1.07-1.03-1.92-1.92-2.54-2.68-.66-.81-1.14-1.56-1.45-2.24A4.68 4.68 0 0 1 4 8.32c0-.37.05-.72.15-1.05.03-.11.07-.23.12-.34.09-.22.2-.43.33-.62.12-.17.25-.33.4-.48.15-.15.31-.28.49-.4.19-.13.39-.25.62-.34l.33-.12a3.72 3.72 0 0 1 1.52-.12c.4.05.79.16 1.18.34.36.18.68.39.97.64.13.12.25.24.36.38L12 8l1.52-1.79c.11-.14.23-.26.36-.38.29-.25.61-.46.97-.64a3.96 3.96 0 0 1 1.65-.37c.36 0 .71.05 1.05.15l.33.12c.23.09.43.21.62.34.18.12.34.25.49.4.15.15.28.31.4.48.13.19.24.4.33.62.05.11.09.23.12.34.1.33.16.68.16 1.05 0 .63-.15 1.26-.44 1.92-.3.68-.79 1.42-1.45 2.23-.61.76-1.45 1.65-2.52 2.68-.45.44-.99.95-1.62 1.52-.39.36-1 .91-1.83 1.67l-.01.01-.01.01v.01h-.01l-.01.01-.1.09Z" fill="#202020" fill-rule="evenodd"/>
    </g>
</svg><svg fill="none" viewBox="0 0 24 24" id="person" xmlns="http://www.w3.org/2000/svg">
    <defs>
        <clipPath id="ca">
            <path fill="#fff" fill-opacity="0" d="M0 0h24v24H0z"/>
        </clipPath>
    </defs>
    <path fill="none" d="M0 0h24v24H0z"/>
    <g clip-path="url(#ca)">
        <path d="M16 8.5c0 2.21-1.79 4-4 4s-4-1.79-4-4V5c0-.83.66-1.5 1.5-1.5.51 0 .98.26 1.25.67.26-.41.73-.67 1.25-.67.51 0 .98.26 1.25.67.26-.41.73-.67 1.25-.67.83 0 1.5.67 1.5 1.5v3.5Zm-2 0V6h-4v2.5c0 1.1.9 2 2 2 1.09 0 2-.9 2-2Zm-2 5c2.53 0 4.7.69 6.38 1.55 1 .52 1.62 1.55 1.62 2.66v2.79H4v-2.79c0-1.11.61-2.14 1.61-2.66 1.68-.86 3.85-1.55 6.39-1.55Zm-6 4.21v.79h12v-.79c0-.38-.21-.71-.52-.88-1.19-.6-3.11-1.33-5.48-1.33-2.38 0-4.3.73-5.49 1.33-.31.17-.51.5-.51.88Z" fill="#202020" fill-rule="evenodd"/>
    </g>
</svg><svg fill="none" viewBox="0 0 24 24" id="search" xmlns="http://www.w3.org/2000/svg">
    <defs>
        <clipPath id="da">
            <path fill="#fff" fill-opacity="0" d="M0 0h24v24H0z"/>
        </clipPath>
    </defs>
    <path fill="none" d="M0 0h24v24H0z"/>
    <g clip-path="url(#da)">
        <path d="M15.75 14.25h-.79l-.28-.27a6.471 6.471 0 0 0 1.57-4.23 6.5 6.5 0 1 0-6.5 6.5c1.61 0 3.09-.59 4.23-1.57l.27.28v.79l5 4.99 1.49-1.49-4.99-5Zm-6 0c-2.49 0-4.5-2.01-4.5-4.5s2.01-4.5 4.5-4.5 4.5 2.01 4.5 4.5-2.01 4.5-4.5 4.5Z" fill="#0C0C0C"/>
    </g>
</svg></svg>