<svg width="24.000000" height="24.000000" viewBox="0 0 24 24" fill="none" xmlns="http://www.w3.org/2000/svg" xmlns:xlink="http://www.w3.org/1999/xlink">
	<desc>
			Created with Pixso.
	</desc>
	<defs>
		<clipPath id="clip2_1219">
			<rect width="24.000000" height="24.000000" fill="white" fill-opacity="0"/>
		</clipPath>
	</defs>
	<rect width="24.000000" height="24.000000" fill="#FFFFFF" fill-opacity="0"/>
	<g clip-path="url(#clip2_1219)">
		<path d="M18 6L16 6C16 3.78 14.21 2 12 2C9.79 2 8 3.78 8 6L6 6C4.9 6 4 6.89 4 8L4 20C4 21.1 4.9 22 6 22L18 22C19.09 22 20 21.1 20 20L20 8C20 6.89 19.09 6 18 6ZM12 4C13.09 4 14 4.89 14 6L10 6C10 4.89 10.9 4 12 4ZM18 20L6 20L6 8L8 8L8 10C8 10.55 8.45 11 9 11C9.54 11 10 10.55 10 10L10 8L14 8L14 10C14 10.55 14.45 11 15 11C15.54 11 16 10.55 16 10L16 8L18 8L18 20Z" fill="#202020" fill-opacity="1.000000" fill-rule="nonzero"/>
	</g>
</svg>
