<svg width="24.000000" height="24.000000" viewBox="0 0 24 24" fill="none" xmlns="http://www.w3.org/2000/svg" xmlns:xlink="http://www.w3.org/1999/xlink">
	<desc>
			Created with Pixso.
	</desc>
	<defs>
		<clipPath id="clip2_1216">
			<rect width="24.000000" height="24.000000" fill="white" fill-opacity="0"/>
		</clipPath>
	</defs>
	<rect width="24.000000" height="24.000000" fill="#FFFFFF" fill-opacity="0"/>
	<g clip-path="url(#clip2_1216)">
		<path d="M12 21.17L10.54 19.85C5.4 15.18 2 12.1 2 8.32C2 5.24 4.41 2.82 7.5 2.82C9.24 2.82 10.91 3.63 12 4.91C13.08 3.63 14.75 2.82 16.5 2.82C19.58 2.82 22 5.24 22 8.32C22 12.1 18.59 15.18 13.45 19.86L12 21.17Z" fill="#FFFFFF" fill-opacity="1.000000" fill-rule="nonzero"/>
		<path d="M10.58 3.7C9.66 3.14 8.59 2.82 7.5 2.82C4.41 2.82 2 5.24 2 8.32C2 12.1 5.4 15.18 10.54 19.85L12 21.17L13.45 19.86C18.59 15.18 22 12.1 22 8.32C22 5.24 19.58 2.82 16.5 2.82C15.4 2.82 14.33 3.14 13.41 3.7C12.88 4.03 12.4 4.44 12 4.91C11.59 4.44 11.11 4.03 10.58 3.7ZM12 18.47L11.89 18.37L11.89 18.37L11.88 18.35C11.04 17.6 10.43 17.04 10.04 16.69C9.41 16.11 8.87 15.6 8.42 15.16C7.35 14.13 6.5 13.24 5.88 12.48C5.22 11.67 4.74 10.92 4.43 10.24C4.14 9.59 4 8.95 4 8.32C4 7.95 4.05 7.6 4.15 7.27C4.18 7.16 4.22 7.04 4.27 6.93C4.36 6.71 4.47 6.5 4.6 6.31C4.72 6.14 4.85 5.98 5 5.83C5.15 5.68 5.31 5.55 5.49 5.43C5.68 5.3 5.88 5.18 6.11 5.09C6.22 5.05 6.33 5.01 6.44 4.97C6.78 4.87 7.13 4.82 7.5 4.82C7.65 4.82 7.81 4.83 7.96 4.85C8.36 4.9 8.75 5.01 9.14 5.19C9.5 5.37 9.82 5.58 10.11 5.83C10.24 5.95 10.36 6.07 10.47 6.21L12 8L13.52 6.21C13.63 6.07 13.75 5.95 13.88 5.83C14.17 5.58 14.49 5.37 14.85 5.19C15.24 5.01 15.63 4.9 16.03 4.85C16.18 4.83 16.34 4.82 16.5 4.82C16.86 4.82 17.21 4.87 17.55 4.97C17.66 5.01 17.77 5.05 17.88 5.09C18.11 5.18 18.31 5.3 18.5 5.43C18.68 5.55 18.84 5.68 18.99 5.83C19.14 5.98 19.27 6.14 19.39 6.31C19.52 6.5 19.63 6.71 19.72 6.93C19.77 7.04 19.81 7.16 19.84 7.27C19.94 7.6 20 7.95 20 8.32C20 8.95 19.85 9.58 19.56 10.24C19.26 10.92 18.77 11.66 18.11 12.47C17.5 13.23 16.66 14.12 15.59 15.15C15.14 15.59 14.6 16.1 13.97 16.67C13.58 17.03 12.97 17.58 12.14 18.34L12.13 18.35L12.12 18.36L12.12 18.36L12.12 18.36L12.12 18.36L12.12 18.37L12.11 18.37L12.11 18.37L12.11 18.37L12.11 18.37L12.11 18.37L12.11 18.37L12.1 18.38L12.1 18.38L12 18.47Z" fill="#202020" fill-opacity="1.000000" fill-rule="evenodd"/>
	</g>
</svg>
