<svg width="24.000000" height="24.000000" viewBox="0 0 24 24" fill="none" xmlns="http://www.w3.org/2000/svg" xmlns:xlink="http://www.w3.org/1999/xlink">
	<desc>
			Created with Pixso.
	</desc>
	<defs>
		<clipPath id="clip2_1213">
			<rect width="24.000000" height="24.000000" fill="white" fill-opacity="0"/>
		</clipPath>
	</defs>
	<rect width="24.000000" height="24.000000" fill="#FFFFFF" fill-opacity="0"/>
	<g clip-path="url(#clip2_1213)">
		<path d="M16 8.5C16 10.71 14.21 12.5 12 12.5C9.79 12.5 8 10.71 8 8.5L8 5C8 4.17 8.66 3.5 9.5 3.5C10.01 3.5 10.48 3.76 10.75 4.17C11.01 3.76 11.48 3.5 12 3.5C12.51 3.5 12.98 3.76 13.25 4.17C13.51 3.76 13.98 3.5 14.5 3.5C15.33 3.5 16 4.17 16 5L16 8.5ZM14 8.5L14 6L10 6L10 8.5C10 9.6 10.9 10.5 12 10.5C13.09 10.5 14 9.6 14 8.5ZM12 13.5C14.53 13.5 16.7 14.19 18.38 15.05C19.38 15.57 20 16.6 20 17.71L20 20.5L4 20.5L4 17.71C4 16.6 4.61 15.57 5.61 15.05C7.29 14.19 9.46 13.5 12 13.5ZM6 17.71L6 18.5L18 18.5L18 17.71C18 17.33 17.79 17 17.48 16.83C16.29 16.23 14.37 15.5 12 15.5C9.62 15.5 7.7 16.23 6.51 16.83C6.2 17 6 17.33 6 17.71Z" fill="#202020" fill-opacity="1.000000" fill-rule="evenodd"/>
	</g>
</svg>
