<svg width="24.000000" height="24.000000" viewBox="0 0 24 24" fill="none" xmlns="http://www.w3.org/2000/svg" xmlns:xlink="http://www.w3.org/1999/xlink">
	<desc>
			Created with Pixso.
	</desc>
	<defs>
		<clipPath id="clip2_1210">
			<rect width="24.000000" height="24.000000" fill="white" fill-opacity="0"/>
		</clipPath>
	</defs>
	<rect width="24.000000" height="24.000000" fill="#FFFFFF" fill-opacity="0"/>
	<g clip-path="url(#clip2_1210)">
		<path d="M15.75 14.25L14.96 14.25L14.68 13.98C15.66 12.84 16.25 11.36 16.25 9.75C16.25 6.16 13.34 3.25 9.75 3.25C6.16 3.25 3.25 6.16 3.25 9.75C3.25 13.34 6.16 16.25 9.75 16.25C11.36 16.25 12.84 15.66 13.98 14.68L14.25 14.96L14.25 15.75L19.25 20.74L20.74 19.25L15.75 14.25ZM9.75 14.25C7.26 14.25 5.25 12.24 5.25 9.75C5.25 7.26 7.26 5.25 9.75 5.25C12.24 5.25 14.25 7.26 14.25 9.75C14.25 12.24 12.24 14.25 9.75 14.25Z" fill="#0C0C0C" fill-opacity="1.000000" fill-rule="nonzero"/>
	</g>
</svg>
